<svg xmlns="http://www.w3.org/2000/svg" xmlns:xlink="http://www.w3.org/1999/xlink" id="Layer_1" data-name="Layer 1" viewBox="0 0 918 217.53"><defs><style>      .cls-1 {        fill: url(#linear-gradient-2);      }      .cls-2 {        fill: #747c7c;      }      .cls-3 {        fill: url(#linear-gradient);      }    </style><linearGradient id="linear-gradient" x1="111.43" y1="35.59" x2="111.43" y2="166.17" gradientTransform="translate(0 220) scale(1 -1)" gradientUnits="userSpaceOnUse"><stop offset="0" stop-color="#006ef5"></stop><stop offset=".25" stop-color="#007eed"></stop><stop offset=".74" stop-color="#00a7da"></stop><stop offset="1" stop-color="#00c0d0"></stop></linearGradient><linearGradient id="linear-gradient-2" x1="111.43" y1="33.45" x2="111.43" y2="183.96" gradientTransform="translate(0 220) scale(1 -1)" gradientUnits="userSpaceOnUse"><stop offset="0" stop-color="#006ef5"></stop><stop offset=".22" stop-color="#0072f3"></stop><stop offset=".44" stop-color="#007eed"></stop><stop offset=".66" stop-color="#0092e4"></stop><stop offset=".88" stop-color="#00aed8"></stop><stop offset="1" stop-color="#00c0d0"></stop></linearGradient></defs><g><path class="cls-3" d="M215.38,27.74v162.05h-29.55c-10.46-28.09-35.8-75.95-74.39-111.13-4.14-3.75-8.41-7.37-12.83-10.78l-.03-.03c-19.54-15.16-41.99-26.73-67.19-31.32-7.72-1.39-15.68-2.15-23.92-2.15v-6.64c.45,0,.9,0,1.36.04h.38c39.66.31,73.66,12.58,102.19,31.08,0,.03.03.03.03.03,4.38,2.85,8.66,5.84,12.79,9,28.43,21.45,50.75,48.84,67.23,75.4V29.23l5.41-.59c4.07-.45,8.17-.71,12.26-.78l6.25-.12h.01Z"></path><path class="cls-1" d="M7.47,27.74v162.05h29.55c10.46-28.09,35.8-75.95,74.39-111.13,4.14-3.75,8.41-7.37,12.83-10.78l.03-.03c19.54-15.16,41.99-26.73,67.19-31.32,7.72-1.39,15.68-2.15,23.92-2.15v-6.64c-.45,0-.9,0-1.36.04h-.38c-39.66.31-73.66,12.58-102.19,31.08,0,.03-.03.03-.03.03-4.38,2.85-8.66,5.84-12.79,9-28.43,21.45-50.75,48.84-67.23,75.4V29.23l-5.41-.59c-4.07-.45-8.17-.71-12.26-.78l-6.25-.12h-.01Z"></path></g><g><g><path class="cls-2" d="M282.3,35.96c1.38,2.52,2.96,5.63,4.76,9.33,1.8,3.7,3.67,7.71,5.62,12.02,1.95,4.31,3.88,8.72,5.8,13.22,1.91,4.51,3.71,8.74,5.4,12.71,1.68-3.97,3.48-8.2,5.4-12.71,1.91-4.5,3.84-8.91,5.8-13.22,1.95-4.31,3.83-8.32,5.63-12.02,1.8-3.7,3.39-6.81,4.76-9.33h16.26c.76,5.27,1.47,11.16,2.12,17.69.65,6.53,1.22,13.32,1.72,20.38s.95,14.14,1.37,21.24c.42,7.1.78,13.78,1.09,20.04h-17.4c-.23-7.71-.53-16.11-.92-25.19-.38-9.08-.96-18.24-1.72-27.48-1.38,3.21-2.91,6.76-4.59,10.65-1.69,3.89-3.35,7.79-5,11.68s-3.24,7.61-4.77,11.16c-1.53,3.55-2.83,6.58-3.91,9.1h-12.48c-1.07-2.52-2.37-5.55-3.91-9.1-1.53-3.55-3.12-7.27-4.77-11.16-1.65-3.89-3.31-7.79-4.99-11.68-1.69-3.89-3.22-7.44-4.59-10.65-.76,9.24-1.34,18.4-1.72,27.48-.38,9.09-.69,17.48-.92,25.19h-17.4c.3-6.26.67-12.94,1.09-20.04.42-7.1.88-14.18,1.37-21.24.5-7.06,1.07-13.85,1.72-20.38s1.35-12.42,2.12-17.69h17.06Z"></path><path class="cls-2" d="M422.9,115.31c-.88-2.76-1.83-5.59-2.85-8.49-1.02-2.91-2.03-5.8-3.04-8.68h-30.99c-1,2.89-2.01,5.8-3.01,8.7-1.01,2.91-1.95,5.73-2.81,8.47h-18.55c2.99-8.55,5.82-16.45,8.5-23.7s5.3-14.08,7.87-20.5c2.56-6.41,5.09-12.5,7.58-18.26s5.07-11.39,7.75-16.89h16.93c2.61,5.5,5.18,11.13,7.71,16.89,2.53,5.77,5.08,11.85,7.65,18.26s5.2,13.24,7.88,20.5c2.68,7.25,5.52,15.15,8.51,23.7h-19.13,0ZM401.44,53.94c-.4,1.15-.98,2.72-1.75,4.7s-1.64,4.28-2.62,6.88c-.98,2.6-2.08,5.46-3.29,8.59s-2.44,6.4-3.69,9.83h22.69c-1.22-3.44-2.39-6.73-3.53-9.86-1.14-3.14-2.22-6-3.24-8.6-1.03-2.6-1.92-4.89-2.7-6.87-.77-1.98-1.4-3.53-1.87-4.66h0Z"></path><path class="cls-2" d="M474.22,115.31c-3.16-6.66-6.27-13.58-9.35-20.75-3.07-7.17-5.99-14.26-8.76-21.28-2.77-7.01-5.31-13.73-7.62-20.15-2.32-6.42-4.32-12.14-6.01-17.18h19.69c1.49,4.59,3.14,9.54,4.95,14.84,1.82,5.3,3.67,10.58,5.56,15.84s3.69,10.3,5.42,15.12,3.38,8.98,4.96,12.49c1.49-3.48,3.12-7.63,4.89-12.45s3.6-9.86,5.48-15.12c1.89-5.26,3.74-10.54,5.55-15.84,1.82-5.3,3.47-10.25,4.96-14.87h19.02c-1.78,5.06-3.82,10.79-6.14,17.2-2.31,6.4-4.84,13.12-7.59,20.14-2.75,7.02-5.65,14.12-8.7,21.3s-6.15,14.08-9.3,20.72h-17.04.03Z"></path><path class="cls-2" d="M538.9,115.31V35.96h53.59v15h-35.72v15.57h31.72v14.66h-31.72v19.12h38.36v15h-56.23Z"></path><path class="cls-2" d="M637.25,35.05c11.91,0,21.03,2.12,27.37,6.36,6.33,4.24,9.5,10.82,9.5,19.75,0,5.57-1.28,10.1-3.84,13.57-2.56,3.47-6.24,6.2-11.05,8.19,1.6,1.99,3.28,4.26,5.04,6.81,1.75,2.56,3.49,5.23,5.21,8.01,1.72,2.79,3.38,5.69,4.98,8.7,1.6,3.02,3.09,5.97,4.47,8.87h-19.97c-1.46-2.59-2.93-5.23-4.43-7.9-1.49-2.67-3.02-5.27-4.6-7.79-1.57-2.52-3.12-4.9-4.66-7.16-1.53-2.25-3.07-4.29-4.6-6.13h-8.82v28.97h-17.86V37.11c3.89-.76,7.92-1.3,12.08-1.6,4.16-.3,7.88-.46,11.16-.46h.02ZM638.28,50.28c-1.3,0-2.46.04-3.49.11-1.03.08-2,.15-2.92.23v21.53h5.04c6.72,0,11.53-.84,14.43-2.52,2.9-1.68,4.35-4.54,4.35-8.59s-1.47-6.66-4.41-8.3-7.27-2.46-13-2.46Z"></path><path class="cls-2" d="M696.11,35.96h17.86v79.35h-17.86V35.96Z"></path><path class="cls-2" d="M774.2,116.92c-12.9,0-22.73-3.59-29.48-10.76-6.76-7.17-10.13-17.36-10.13-30.57,0-6.56,1.03-12.42,3.09-17.58,2.06-5.15,4.88-9.5,8.47-13.05,3.59-3.55,7.86-6.24,12.82-8.07,4.96-1.83,10.34-2.75,16.14-2.75,3.36,0,6.41.25,9.16.74,2.75.5,5.15,1.07,7.21,1.72s3.78,1.32,5.15,2c1.37.69,2.37,1.22,2.98,1.6l-5.15,14.43c-2.44-1.3-5.29-2.4-8.53-3.32-3.25-.92-6.93-1.37-11.05-1.37-2.75,0-5.44.46-8.07,1.37-2.63.92-4.96,2.39-6.98,4.41s-3.65,4.64-4.87,7.84c-1.22,3.21-1.83,7.1-1.83,11.68,0,3.66.4,7.08,1.2,10.25s2.1,5.9,3.89,8.19c1.79,2.29,4.14,4.1,7.04,5.44,2.9,1.34,6.41,2,10.53,2,2.59,0,4.92-.15,6.98-.46,2.06-.3,3.89-.67,5.5-1.09,1.6-.42,3.01-.9,4.24-1.43,1.22-.53,2.33-1.03,3.32-1.49l4.92,14.31c-2.52,1.53-6.07,2.9-10.65,4.12s-9.89,1.83-15.92,1.83h.02Z"></path><path class="cls-2" d="M864.71,115.31c-1.61-2.58-3.5-5.37-5.69-8.37-2.18-3-4.53-6.02-7.05-9.07-2.52-3.04-5.16-5.97-7.91-8.76-2.76-2.79-5.51-5.26-8.26-7.41v33.61h-17.86V35.96h17.86v29.82c4.59-4.82,9.26-9.87,14-15.14s9.11-10.16,13.13-14.69h21.2c-5.4,6.43-10.83,12.62-16.3,18.55-5.46,5.94-11.22,11.91-17.25,17.92,6.35,5.3,12.47,11.58,18.37,18.84,5.9,7.27,11.57,15.28,17.01,24.04h-21.25Z"></path></g><g><path class="cls-2" d="M269.95,177.97c2.26,0,3.9-.38,4.93-1.15,1.03-.76,1.54-1.84,1.54-3.24,0-.83-.17-1.54-.52-2.14-.35-.6-.85-1.14-1.49-1.62-.65-.48-1.44-.93-2.37-1.34s-1.99-.82-3.19-1.22c-1.19-.43-2.35-.9-3.46-1.42-1.11-.51-2.09-1.15-2.94-1.92-.85-.76-1.53-1.68-2.04-2.74-.51-1.06-.77-2.34-.77-3.83,0-3.12,1.08-5.57,3.24-7.34,2.16-1.77,5.09-2.66,8.81-2.66,2.16,0,4.07.24,5.75.72s2.99,1,3.96,1.57l-1.94,5.08c-1.13-.63-2.36-1.11-3.71-1.44-1.34-.33-2.73-.5-4.16-.5-1.69,0-3.01.35-3.96,1.05-.94.7-1.42,1.68-1.42,2.94,0,.76.16,1.42.47,1.97s.76,1.04,1.34,1.47c.58.43,1.26.83,2.04,1.19s1.63.71,2.56,1.05c1.62.6,3.08,1.2,4.35,1.82,1.28.62,2.36,1.34,3.24,2.19s1.55,1.84,2.02,2.99c.46,1.15.7,2.53.7,4.16,0,3.12-1.1,5.53-3.31,7.24s-5.43,2.56-9.68,2.56c-1.43,0-2.73-.09-3.91-.27s-2.22-.41-3.14-.67c-.91-.26-1.7-.54-2.36-.82-.66-.28-1.19-.54-1.59-.77l1.84-5.13c.9.5,2.11,1,3.63,1.49,1.53.5,3.37.75,5.53.75v-.02Z"></path><path class="cls-2" d="M290.95,148.15h6.27v34.5h-6.27v-34.5Z"></path><path class="cls-2" d="M315.52,148.15c.73,1.26,1.54,2.8,2.44,4.63s1.81,3.74,2.74,5.75,1.85,4.05,2.76,6.12c.91,2.07,1.75,3.99,2.51,5.75.76-1.76,1.59-3.67,2.49-5.75.9-2.07,1.81-4.12,2.74-6.12.93-2.01,1.84-3.92,2.74-5.75s1.71-3.37,2.44-4.63h5.65c.3,2.52.59,5.2.86,8.04s.51,5.74.73,8.71.42,5.96.61,8.96c.19,3.01.35,5.93.48,8.79h-6.17c-.14-4.01-.3-8.15-.48-12.4s-.47-8.36-.84-12.35c-.37.76-.8,1.68-1.3,2.74-.5,1.06-1.03,2.22-1.59,3.46s-1.14,2.53-1.72,3.86-1.15,2.61-1.69,3.86c-.55,1.24-1.05,2.41-1.52,3.48-.47,1.08-.86,2-1.19,2.76h-4.68c-.33-.76-.73-1.69-1.19-2.79-.47-1.09-.97-2.26-1.52-3.51-.55-1.24-1.11-2.53-1.69-3.86-.58-1.33-1.15-2.6-1.72-3.83s-1.09-2.38-1.59-3.46-.93-1.98-1.3-2.71c-.37,3.98-.65,8.1-.84,12.35s-.34,8.38-.48,12.4h-6.17c.13-2.85.3-5.81.48-8.86.19-3.05.39-6.08.61-9.09.22-3,.46-5.91.73-8.74.27-2.82.56-5.43.86-7.82h5.81Z"></path><path class="cls-2" d="M367.77,183.4c-2.36,0-4.38-.34-6.07-1.02s-3.09-1.63-4.21-2.86c-1.11-1.23-1.93-2.67-2.46-4.33s-.8-3.48-.8-5.48v-21.55h6.32v20.96c0,1.56.17,2.9.52,4.01.35,1.11.85,2.02,1.49,2.71.65.7,1.41,1.21,2.29,1.54.88.33,1.87.5,2.96.5s2.09-.17,2.99-.5,1.67-.85,2.32-1.54c.65-.7,1.14-1.6,1.49-2.71.35-1.11.52-2.45.52-4.01v-20.96h6.32v21.55c0,1.99-.27,3.82-.82,5.48-.55,1.66-1.38,3.1-2.49,4.33s-2.53,2.18-4.26,2.86c-1.73.68-3.77,1.02-6.12,1.02h.01Z"></path><path class="cls-2" d="M413.76,177.23v5.43h-21.8v-34.5h6.27v29.07h15.53Z"></path><path class="cls-2" d="M445.23,182.65c-.47-1.36-.95-2.7-1.45-4.03s-.98-2.69-1.45-4.08h-14.57c-.47,1.39-.94,2.76-1.42,4.11-.48,1.34-.96,2.68-1.42,4.01h-6.52c1.29-3.68,2.52-7.08,3.68-10.2s2.3-6.07,3.41-8.86c1.11-2.79,2.21-5.44,3.31-7.97,1.09-2.52,2.22-5.01,3.38-7.47h5.99c1.16,2.46,2.29,4.95,3.39,7.47,1.09,2.52,2.2,5.18,3.31,7.97,1.11,2.79,2.26,5.74,3.44,8.86s2.41,6.52,3.71,10.2h-6.79ZM435.05,154.82c-.76,1.76-1.64,3.9-2.61,6.42-.98,2.52-2,5.26-3.06,8.21h11.35c-1.06-2.95-2.09-5.71-3.09-8.26s-1.86-4.68-2.59-6.37h0Z"></path><path class="cls-2" d="M480.02,148.15v5.43h-10.6v29.07h-6.32v-29.07h-10.6v-5.43h27.53-.01Z"></path><path class="cls-2" d="M487.29,148.15h6.27v34.5h-6.27v-34.5Z"></path><path class="cls-2" d="M536.38,165.38c0,2.95-.44,5.56-1.32,7.82-.88,2.26-2.07,4.14-3.58,5.65s-3.28,2.65-5.3,3.41c-2.03.76-4.18,1.15-6.47,1.15s-4.46-.38-6.5-1.15c-2.04-.76-3.82-1.9-5.33-3.41-1.51-1.51-2.71-3.39-3.61-5.65-.9-2.26-1.34-4.86-1.34-7.82s.45-5.55,1.34-7.79c.9-2.24,2.11-4.12,3.66-5.65,1.54-1.53,3.33-2.67,5.35-3.44,2.02-.76,4.16-1.14,6.42-1.14s4.4.38,6.42,1.14c2.03.76,3.79,1.91,5.3,3.44s2.71,3.41,3.61,5.65c.9,2.24,1.34,4.84,1.34,7.79h.01ZM509.45,165.38c0,1.89.23,3.61.7,5.15.47,1.54,1.14,2.85,2.02,3.93.88,1.08,1.95,1.92,3.21,2.51,1.26.6,2.69.9,4.28.9s2.97-.3,4.23-.9c1.26-.6,2.33-1.43,3.21-2.51s1.55-2.39,2.02-3.93c.47-1.54.7-3.26.7-5.15s-.23-3.61-.7-5.15c-.46-1.54-1.14-2.85-2.02-3.93-.88-1.08-1.95-1.92-3.21-2.51-1.26-.6-2.67-.9-4.23-.9s-3.02.3-4.28.9c-1.26.6-2.33,1.44-3.21,2.54-.88,1.09-1.55,2.41-2.02,3.93-.46,1.53-.7,3.24-.7,5.13h0Z"></path><path class="cls-2" d="M568.98,182.65c-1.13-1.89-2.39-3.92-3.78-6.1-1.39-2.17-2.84-4.36-4.33-6.57s-3.01-4.35-4.55-6.42c-1.54-2.07-3.01-3.94-4.41-5.6v24.69h-6.17v-34.5h5.13c1.33,1.39,2.75,3.05,4.28,4.95,1.53,1.91,3.06,3.89,4.61,5.95,1.54,2.06,3.04,4.12,4.48,6.2,1.44,2.07,2.73,4.01,3.86,5.8v-22.9h6.22v34.5h-5.34Z"></path><path class="cls-2" d="M607.51,177.97c2.26,0,3.9-.38,4.93-1.15,1.03-.76,1.54-1.84,1.54-3.24,0-.83-.17-1.54-.52-2.14-.35-.6-.85-1.14-1.49-1.62-.65-.48-1.44-.93-2.37-1.34s-1.99-.82-3.19-1.22c-1.19-.43-2.35-.9-3.46-1.42s-2.09-1.15-2.94-1.92c-.85-.76-1.53-1.68-2.04-2.74s-.77-2.34-.77-3.83c0-3.12,1.08-5.57,3.24-7.34,2.16-1.77,5.09-2.66,8.81-2.66,2.16,0,4.07.24,5.75.72s2.99,1,3.96,1.57l-1.94,5.08c-1.13-.63-2.36-1.11-3.71-1.44-1.34-.33-2.73-.5-4.16-.5-1.69,0-3.01.35-3.96,1.05-.94.7-1.42,1.68-1.42,2.94,0,.76.16,1.42.47,1.97s.76,1.04,1.34,1.47c.58.43,1.26.83,2.04,1.19.78.36,1.63.71,2.56,1.05,1.62.6,3.08,1.2,4.35,1.82,1.28.62,2.36,1.34,3.24,2.19s1.55,1.84,2.02,2.99c.46,1.15.7,2.53.7,4.16,0,3.12-1.1,5.53-3.31,7.24s-5.43,2.56-9.68,2.56c-1.43,0-2.73-.09-3.91-.27s-2.22-.41-3.14-.67c-.91-.26-1.7-.54-2.36-.82-.66-.28-1.19-.54-1.59-.77l1.84-5.13c.9.5,2.11,1,3.63,1.49,1.53.5,3.37.75,5.53.75v-.02Z"></path><path class="cls-2" d="M660.58,165.38c0,2.95-.44,5.56-1.32,7.82-.88,2.26-2.07,4.14-3.58,5.65s-3.28,2.65-5.3,3.41c-2.03.76-4.18,1.15-6.47,1.15s-4.46-.38-6.5-1.15c-2.04-.76-3.82-1.9-5.33-3.41-1.51-1.51-2.71-3.39-3.61-5.65-.9-2.26-1.34-4.86-1.34-7.82s.45-5.55,1.34-7.79c.9-2.24,2.11-4.12,3.66-5.65,1.54-1.53,3.33-2.67,5.35-3.44,2.02-.76,4.16-1.14,6.42-1.14s4.4.38,6.42,1.14c2.03.76,3.79,1.91,5.3,3.44s2.71,3.41,3.61,5.65c.9,2.24,1.34,4.84,1.34,7.79h.01ZM633.65,165.38c0,1.89.23,3.61.7,5.15.47,1.54,1.14,2.85,2.02,3.93.88,1.08,1.95,1.92,3.21,2.51,1.26.6,2.69.9,4.28.9s2.97-.3,4.23-.9,2.33-1.43,3.21-2.51,1.55-2.39,2.02-3.93c.47-1.54.7-3.26.7-5.15s-.23-3.61-.7-5.15c-.46-1.54-1.14-2.85-2.02-3.93-.88-1.08-1.95-1.92-3.21-2.51-1.26-.6-2.67-.9-4.23-.9s-3.02.3-4.28.9c-1.26.6-2.33,1.44-3.21,2.54-.88,1.09-1.55,2.41-2.02,3.93-.46,1.53-.7,3.24-.7,5.13h0Z"></path><path class="cls-2" d="M691.75,177.23v5.43h-21.8v-34.5h6.27v29.07h15.53,0Z"></path><path class="cls-2" d="M711.51,183.4c-2.36,0-4.38-.34-6.07-1.02-1.69-.68-3.09-1.63-4.21-2.86-1.11-1.23-1.93-2.67-2.46-4.33s-.8-3.48-.8-5.48v-21.55h6.32v20.96c0,1.56.17,2.9.52,4.01.35,1.11.85,2.02,1.49,2.71.65.7,1.41,1.21,2.29,1.54.88.33,1.87.5,2.96.5s2.09-.17,2.99-.5c.9-.33,1.67-.85,2.32-1.54.65-.7,1.14-1.6,1.49-2.71s.52-2.45.52-4.01v-20.96h6.32v21.55c0,1.99-.27,3.82-.82,5.48-.55,1.66-1.38,3.1-2.49,4.33s-2.53,2.18-4.26,2.86c-1.73.68-3.77,1.02-6.12,1.02h.01Z"></path><path class="cls-2" d="M759.75,148.15v5.43h-10.6v29.07h-6.32v-29.07h-10.6v-5.43h27.53-.01Z"></path><path class="cls-2" d="M767.02,148.15h6.27v34.5h-6.27v-34.5Z"></path><path class="cls-2" d="M816.1,165.38c0,2.95-.44,5.56-1.32,7.82-.88,2.26-2.07,4.14-3.58,5.65s-3.28,2.65-5.3,3.41c-2.03.76-4.18,1.15-6.47,1.15s-4.46-.38-6.5-1.15c-2.04-.76-3.82-1.9-5.33-3.41-1.51-1.51-2.71-3.39-3.61-5.65-.9-2.26-1.34-4.86-1.34-7.82s.45-5.55,1.34-7.79c.9-2.24,2.11-4.12,3.66-5.65,1.54-1.53,3.33-2.67,5.35-3.44,2.02-.76,4.16-1.14,6.42-1.14s4.4.38,6.42,1.14c2.03.76,3.79,1.91,5.3,3.44s2.71,3.41,3.61,5.65c.9,2.24,1.34,4.84,1.34,7.79h.01ZM789.17,165.38c0,1.89.23,3.61.7,5.15.47,1.54,1.14,2.85,2.02,3.93.88,1.08,1.95,1.92,3.21,2.51,1.26.6,2.69.9,4.28.9s2.97-.3,4.23-.9c1.26-.6,2.33-1.43,3.21-2.51s1.55-2.39,2.02-3.93c.47-1.54.7-3.26.7-5.15s-.23-3.61-.7-5.15c-.46-1.54-1.14-2.85-2.02-3.93-.88-1.08-1.95-1.92-3.21-2.51-1.26-.6-2.67-.9-4.23-.9s-3.02.3-4.28.9c-1.26.6-2.33,1.44-3.21,2.54-.88,1.09-1.55,2.41-2.02,3.93-.46,1.53-.7,3.24-.7,5.13h0Z"></path><path class="cls-2" d="M848.71,182.65c-1.13-1.89-2.39-3.92-3.78-6.1-1.39-2.17-2.84-4.36-4.33-6.57s-3.01-4.35-4.55-6.42c-1.54-2.07-3.01-3.94-4.41-5.6v24.69h-6.17v-34.5h5.13c1.33,1.39,2.75,3.05,4.28,4.95,1.53,1.91,3.06,3.89,4.61,5.95,1.54,2.06,3.04,4.12,4.48,6.2,1.44,2.07,2.73,4.01,3.86,5.8v-22.9h6.22v34.5h-5.34Z"></path><path class="cls-2" d="M873.15,177.97c2.26,0,3.9-.38,4.93-1.15,1.03-.76,1.54-1.84,1.54-3.24,0-.83-.17-1.54-.52-2.14-.35-.6-.85-1.14-1.49-1.62-.65-.48-1.44-.93-2.37-1.34s-1.99-.82-3.19-1.22c-1.19-.43-2.35-.9-3.46-1.42-1.11-.51-2.09-1.15-2.94-1.92-.85-.76-1.53-1.68-2.04-2.74-.51-1.06-.77-2.34-.77-3.83,0-3.12,1.08-5.57,3.24-7.34,2.16-1.77,5.09-2.66,8.81-2.66,2.16,0,4.07.24,5.75.72s2.99,1,3.96,1.57l-1.94,5.08c-1.13-.63-2.36-1.11-3.71-1.44-1.34-.33-2.73-.5-4.16-.5-1.69,0-3.01.35-3.96,1.05-.94.7-1.42,1.68-1.42,2.94,0,.76.16,1.42.47,1.97s.76,1.04,1.34,1.47c.58.43,1.26.83,2.04,1.19s1.63.71,2.56,1.05c1.62.6,3.08,1.2,4.35,1.82,1.28.62,2.36,1.34,3.24,2.19s1.55,1.84,2.02,2.99c.46,1.15.7,2.53.7,4.16,0,3.12-1.1,5.53-3.31,7.24s-5.43,2.56-9.68,2.56c-1.43,0-2.73-.09-3.91-.27s-2.22-.41-3.14-.67c-.91-.26-1.7-.54-2.36-.82-.66-.28-1.19-.54-1.59-.77l1.84-5.13c.9.5,2.11,1,3.63,1.49,1.53.5,3.37.75,5.53.75v-.02Z"></path></g></g><g><path class="cls-2" d="M902.43,35.96c-4.46,0-8.09,3.63-8.09,8.09s3.63,8.09,8.09,8.09,8.09-3.63,8.09-8.09-3.63-8.09-8.09-8.09ZM908.91,44.06c0,3.57-2.91,6.48-6.48,6.48s-6.48-2.91-6.48-6.48,2.91-6.48,6.48-6.48,6.48,2.91,6.48,6.48Z"></path><path class="cls-2" d="M905.48,43.96c.24-.44.37-.95.37-1.52s-.12-1.08-.36-1.52c-.24-.45-.62-.81-1.11-1.07-.48-.25-1.07-.37-1.78-.37h-3.33v9.09h1.89v-3.21h1.33l1.72,3.21h2.16l-1.97-3.59c.47-.25.83-.59,1.07-1.02h.01ZM901.16,41.19h1.3c.37,0,.67.05.89.16.2.1.34.23.44.4.1.19.15.42.15.69s-.05.49-.14.67c-.09.17-.23.29-.43.38-.22.1-.51.15-.88.15h-1.32v-2.46h-.01Z"></path></g></svg>