<?xml version="1.0" encoding="utf-8"?>
<svg xmlns="http://www.w3.org/2000/svg" fill="none" height="100%" overflow="visible" preserveAspectRatio="none" style="display: block;" viewBox="0 0 84 50" width="100%">
<g id="imag_logo">
<g clip-path="url(#clip0_0_21161)" id="imag_logo_2">
<g id="Group">
<path d="M41.595 6.11731C40.3698 5.48911 39.3983 7.47371 40.1161 9.92616C45.2252 12.539 48.3501 14.8896 50.2302 16.9138L45.4789 21.1678C42.3128 24.0032 41.827 24.2655 41.4888 24.2655C41.1289 24.2655 41.066 23.7391 41.066 22.5638C41.066 19.9303 40.9401 17.3778 39.3983 17.3778C37.9411 17.3778 36.1456 19.038 34.415 21.2056C35.1544 16.8515 34.6471 15.8573 33.8663 15.8573C33.0227 15.8573 31.5654 16.9911 26.8988 21.1641C23.7326 23.9995 23.2468 24.2617 22.9086 24.2617C22.5074 24.2617 22.1692 23.309 22.3599 18.4682C22.3816 17.7382 21.3884 17.4967 20.8614 18.2664C17.884 22.5808 16.0689 24.7069 15.2232 24.7069C14.4622 24.7069 15.3707 21.1829 16.7434 17.5363C17.2291 16.3403 16.004 15.5913 15.0954 16.4214L9.79549 21.1622C8.44446 22.3771 6.77681 23.6939 5.25665 24.8276C5.46707 22.1752 6.2065 18.8323 8.27533 16.7855C8.2537 14.3557 6.67061 13.7671 5.84662 14.699C2.61554 18.2438 2.67847 23.5109 2.82793 26.5293C2.51131 26.7519 2.19469 26.9349 1.94101 27.0971C0.316618 28.0347 0 28.8044 0 29.6552C0 31.0324 0.928222 31.8832 1.98427 31.8832C4.03344 31.8832 4.85547 29.2496 5.10915 27.6499C6.73551 26.5349 8.50936 25.1785 10.3461 23.5373L12.5841 21.5319C11.5497 25.7652 11.9292 28.4799 13.471 28.4799C14.6962 28.4799 16.47 27.4876 19.5949 23.558C19.6362 26.7179 20.4386 27.6084 21.3471 27.6084C22.2557 27.6084 23.3314 27.2235 27.4494 23.5373C29.6874 21.5319 30.8063 20.6 31.7129 19.8926C31.4179 22.2016 30.8889 25.5634 30.2773 28.2384C30.0237 29.2911 31.2901 29.7382 32.0296 28.4818C34.3521 24.5315 36.887 21.0075 37.7719 21.0075C38.0669 21.0075 38.2793 21.2905 38.2793 22.7695C38.3009 25.869 38.5959 27.6102 39.9273 27.6102C40.8359 27.6102 41.9116 27.2254 46.0296 23.5392L47.8231 21.9205C47.6323 22.6695 47.5478 23.4599 47.5478 24.3919C47.5478 27.2273 48.7729 28.6044 50.1456 28.6044C52.4681 28.6044 55.1073 25.4445 55.1073 21.332C55.1073 17.2194 52.2164 11.8089 41.595 6.11731ZM51.2017 18.1079C52.4052 19.7284 52.7651 21.1056 52.7651 22.1997C52.7651 23.6788 51.8782 24.7314 51.0758 24.7314C50.3993 24.7314 49.9785 23.9825 49.9785 22.5638C49.9785 21.2886 50.358 19.4851 51.2036 18.1287V18.1079H51.2017Z" fill="var(--fill-0, #282828)" id="Vector"/>
<g id="Proptech">
<path d="M21.7173 41V33.7273H24.4446C25.0033 33.7273 25.4721 33.8314 25.8509 34.0398C26.232 34.2481 26.5197 34.5346 26.7138 34.8991C26.9103 35.2614 27.0085 35.6733 27.0085 36.1349C27.0085 36.6013 26.9103 37.0156 26.7138 37.3778C26.5173 37.7401 26.2273 38.0253 25.8438 38.2337C25.4602 38.4396 24.9879 38.5426 24.4268 38.5426H22.6193V37.4595H24.2493C24.576 37.4595 24.8435 37.4027 25.0518 37.2891C25.2602 37.1754 25.4141 37.0192 25.5135 36.8203C25.6153 36.6214 25.6662 36.393 25.6662 36.1349C25.6662 35.8769 25.6153 35.6496 25.5135 35.4531C25.4141 35.2566 25.259 35.1039 25.0483 34.995C24.84 34.8838 24.5713 34.8281 24.2422 34.8281H23.0348V41H21.7173Z" fill="var(--fill-0, #6C6C6C)"/>
<path d="M28.0961 41V35.5455H29.3425V36.4545H29.3993C29.4988 36.1397 29.6692 35.897 29.9107 35.7266C30.1545 35.5537 30.4327 35.4673 30.7452 35.4673C30.8162 35.4673 30.8955 35.4709 30.9831 35.478C31.0731 35.4827 31.1477 35.491 31.2069 35.5028V36.6854C31.1524 36.6664 31.066 36.6499 30.9476 36.6357C30.8316 36.6191 30.7192 36.6108 30.6103 36.6108C30.3759 36.6108 30.1652 36.6617 29.9782 36.7635C29.7935 36.8629 29.6479 37.0014 29.5414 37.179C29.4348 37.3565 29.3816 37.5613 29.3816 37.7933V41H28.0961Z" fill="var(--fill-0, #6C6C6C)"/>
<path d="M34.2156 41.1065C33.6829 41.1065 33.2212 40.9893 32.8306 40.755C32.44 40.5206 32.137 40.1927 31.9215 39.7713C31.7085 39.3499 31.6019 38.8575 31.6019 38.294C31.6019 37.7306 31.7085 37.237 31.9215 36.8132C32.137 36.3894 32.44 36.0604 32.8306 35.826C33.2212 35.5916 33.6829 35.4744 34.2156 35.4744C34.7482 35.4744 35.2099 35.5916 35.6005 35.826C35.9911 36.0604 36.293 36.3894 36.506 36.8132C36.7215 37.237 36.8292 37.7306 36.8292 38.294C36.8292 38.8575 36.7215 39.3499 36.506 39.7713C36.293 40.1927 35.9911 40.5206 35.6005 40.755C35.2099 40.9893 34.7482 41.1065 34.2156 41.1065ZM34.2227 40.0767C34.5115 40.0767 34.753 39.9974 34.9471 39.8388C35.1412 39.6778 35.2856 39.4624 35.3803 39.1925C35.4774 38.9226 35.5259 38.6219 35.5259 38.2905C35.5259 37.9567 35.4774 37.6548 35.3803 37.3849C35.2856 37.1127 35.1412 36.8961 34.9471 36.7351C34.753 36.5741 34.5115 36.4936 34.2227 36.4936C33.9267 36.4936 33.6805 36.5741 33.484 36.7351C33.2899 36.8961 33.1443 37.1127 33.0472 37.3849C32.9525 37.6548 32.9052 37.9567 32.9052 38.2905C32.9052 38.6219 32.9525 38.9226 33.0472 39.1925C33.1443 39.4624 33.2899 39.6778 33.484 39.8388C33.6805 39.9974 33.9267 40.0767 34.2227 40.0767Z" fill="var(--fill-0, #6C6C6C)"/>
<path d="M37.9203 43.0455V35.5455H39.1845V36.4474H39.2591C39.3253 36.3149 39.4189 36.174 39.5396 36.0249C39.6603 35.8733 39.8237 35.7443 40.0297 35.6378C40.2356 35.5289 40.4984 35.4744 40.818 35.4744C41.2394 35.4744 41.6194 35.5821 41.9579 35.7976C42.2988 36.0107 42.5687 36.3267 42.7676 36.7457C42.9688 37.1624 43.0694 37.6738 43.0694 38.2798C43.0694 38.8788 42.9712 39.3878 42.7747 39.8068C42.5782 40.2259 42.3107 40.5455 41.9721 40.7656C41.6336 40.9858 41.2501 41.0959 40.8216 41.0959C40.5091 41.0959 40.2498 41.0438 40.0439 40.9396C39.8379 40.8355 39.6722 40.71 39.5467 40.5632C39.4236 40.4141 39.3277 40.2732 39.2591 40.1406H39.2058V43.0455H37.9203ZM39.1809 38.2727C39.1809 38.6255 39.2306 38.9344 39.3301 39.1996C39.4319 39.4647 39.5775 39.6719 39.7669 39.821C39.9586 39.9678 40.1906 40.0412 40.4629 40.0412C40.747 40.0412 40.9849 39.9654 41.1767 39.8139C41.3684 39.66 41.5128 39.4505 41.6099 39.1854C41.7093 38.9178 41.7591 38.6136 41.7591 38.2727C41.7591 37.9342 41.7105 37.6335 41.6135 37.3707C41.5164 37.108 41.372 36.902 41.1802 36.7528C40.9885 36.6037 40.7494 36.5291 40.4629 36.5291C40.1883 36.5291 39.9551 36.6013 39.7633 36.7457C39.5716 36.8902 39.426 37.0926 39.3265 37.353C39.2295 37.6134 39.1809 37.92 39.1809 38.2727Z" fill="var(--fill-0, #6C6C6C)"/>
<path d="M46.894 35.5455V36.5398H43.7583V35.5455H46.894ZM44.5325 34.2386H45.818V39.3594C45.818 39.5322 45.844 39.6648 45.8961 39.7571C45.9506 39.8471 46.0216 39.9086 46.1092 39.9418C46.1968 39.9749 46.2939 39.9915 46.4004 39.9915C46.4809 39.9915 46.5543 39.9856 46.6206 39.9737C46.6892 39.9619 46.7413 39.9512 46.7768 39.9418L46.9934 40.9467C46.9248 40.9704 46.8265 40.9964 46.6987 41.0249C46.5732 41.0533 46.4193 41.0698 46.237 41.0746C45.9151 41.084 45.6251 41.0355 45.367 40.929C45.109 40.8201 44.9042 40.652 44.7527 40.4247C44.6035 40.1974 44.5301 39.9134 44.5325 39.5724V34.2386Z" fill="var(--fill-0, #6C6C6C)"/>
<path d="M50.3253 41.1065C49.7784 41.1065 49.3061 40.9929 48.9084 40.7656C48.513 40.536 48.2088 40.2116 47.9957 39.7926C47.7827 39.3712 47.6761 38.8752 47.6761 38.3047C47.6761 37.7436 47.7827 37.2512 47.9957 36.8274C48.2112 36.4013 48.5118 36.0698 48.8977 35.8331C49.2836 35.594 49.737 35.4744 50.2578 35.4744C50.594 35.4744 50.9112 35.5289 51.2095 35.6378C51.5102 35.7443 51.7753 35.91 52.005 36.1349C52.237 36.3598 52.4193 36.6463 52.5518 36.9943C52.6844 37.34 52.7507 37.7519 52.7507 38.2301V38.6243H48.2798V37.7578H51.5185C51.5161 37.5116 51.4628 37.2926 51.3587 37.1009C51.2545 36.9067 51.1089 36.754 50.9219 36.6428C50.7372 36.5315 50.5218 36.4759 50.2756 36.4759C50.0128 36.4759 49.782 36.5398 49.5831 36.6676C49.3842 36.7931 49.2292 36.9588 49.1179 37.1648C49.009 37.3684 48.9534 37.5921 48.951 37.8359V38.5923C48.951 38.9096 49.009 39.1818 49.125 39.4091C49.241 39.634 49.4032 39.8068 49.6115 39.9276C49.8198 40.0459 50.0637 40.1051 50.343 40.1051C50.5301 40.1051 50.6993 40.0791 50.8509 40.027C51.0024 39.9725 51.1338 39.8932 51.245 39.7891C51.3563 39.6849 51.4403 39.5559 51.4972 39.402L52.6974 39.5369C52.6217 39.8542 52.4773 40.1312 52.2642 40.3679C52.0535 40.6023 51.7836 40.7846 51.4545 40.9148C51.1255 41.0426 50.7491 41.1065 50.3253 41.1065Z" fill="var(--fill-0, #6C6C6C)"/>
<path d="M56.2175 41.1065C55.673 41.1065 55.2054 40.987 54.8148 40.7479C54.4266 40.5088 54.1271 40.1785 53.9164 39.7571C53.708 39.3333 53.6039 38.8456 53.6039 38.294C53.6039 37.7401 53.7104 37.2512 53.9235 36.8274C54.1365 36.4013 54.4372 36.0698 54.8255 35.8331C55.2161 35.594 55.6777 35.4744 56.2104 35.4744C56.6531 35.4744 57.0449 35.5561 57.3858 35.7195C57.7291 35.8804 58.0025 36.1089 58.2061 36.4048C58.4097 36.6984 58.5257 37.0417 58.5542 37.4347H57.3255C57.2757 37.1719 57.1574 36.9529 56.9703 36.7777C56.7857 36.6001 56.5383 36.5114 56.2282 36.5114C55.9654 36.5114 55.7346 36.5824 55.5357 36.7244C55.3368 36.8641 55.1818 37.0653 55.0705 37.3281C54.9616 37.5909 54.9071 37.9058 54.9071 38.2727C54.9071 38.6444 54.9616 38.964 55.0705 39.2315C55.1794 39.4967 55.3321 39.7015 55.5286 39.8459C55.7275 39.9879 55.9606 40.0589 56.2282 40.0589C56.4176 40.0589 56.5868 40.0234 56.736 39.9524C56.8875 39.879 57.0141 39.7737 57.1159 39.6364C57.2177 39.4991 57.2876 39.3321 57.3255 39.1357H58.5542C58.5234 39.5215 58.4097 39.8636 58.2132 40.1619C58.0167 40.4579 57.7492 40.6899 57.4107 40.858C57.0721 41.0237 56.6744 41.1065 56.2175 41.1065Z" fill="var(--fill-0, #6C6C6C)"/>
<path d="M60.8952 37.804V41H59.6097V33.7273H60.8668V36.4723H60.9308C61.0586 36.1645 61.2563 35.9219 61.5238 35.7443C61.7937 35.5644 62.137 35.4744 62.5536 35.4744C62.9324 35.4744 63.2627 35.5537 63.5444 35.7124C63.8261 35.871 64.0439 36.103 64.1978 36.4084C64.354 36.7138 64.4322 37.0866 64.4322 37.527V41H63.1467V37.7259C63.1467 37.3589 63.052 37.0736 62.8626 36.87C62.6755 36.6641 62.4128 36.5611 62.0742 36.5611C61.8469 36.5611 61.6433 36.6108 61.4634 36.7102C61.2859 36.8073 61.1462 36.9482 61.0444 37.1328C60.945 37.3175 60.8952 37.5412 60.8952 37.804Z" fill="var(--fill-0, #6C6C6C)"/>
</g>
<path d="M81.44 17.2992C77.2178 23.0115 75.8019 23.7812 75.1686 23.7812C74.4292 23.7812 74.4292 21.4117 75.0428 17.6029C75.1903 16.7728 74.4095 16.388 73.8805 16.8728L69.1293 21.1665C66.0477 23.9208 65.4557 24.1849 64.9287 24.1849C64.5275 24.1849 64.2954 23.7397 64.1892 23.1926C64.736 22.3663 65.1489 21.5325 65.3731 20.8005C65.4026 20.7137 65.4341 20.6156 65.4675 20.5024C66.0162 18.6046 66.1598 17.4954 65.9965 16.8728C65.9729 16.7653 65.9336 16.6672 65.8785 16.5804C65.8746 16.5729 65.8687 16.5672 65.8648 16.5597C65.8569 16.5502 65.851 16.5389 65.8431 16.5295C65.6445 16.2427 65.3161 16.1465 64.8874 16.1465C62.1204 16.1465 56.1243 21.6362 56.1243 26.1733C56.1243 27.3071 56.673 28.2805 57.8353 28.2805C59.1234 28.2805 60.6868 27.2467 62.0791 25.8507C62.3328 26.843 62.8815 27.6334 63.7468 27.6334C64.6121 27.6334 65.5423 27.2486 69.6799 23.5416L71.9592 21.4966C71.5167 26.0337 72.614 27.3712 73.5423 27.3712C74.4705 27.3712 75.6111 26.743 77.0467 25.4866C74.4076 30.5915 71.9375 35.6548 69.4459 40.556C68.2837 42.5821 70.8599 42.1161 72.0437 41.3257C74.9582 35.0455 80.1735 24.7169 83.086 18.8216C83.8255 17.3841 82.325 17.0992 81.44 17.3029V17.2992ZM61.9926 23.0511C61.1273 24.1245 59.9867 24.9961 59.1627 24.9961C58.9523 24.9961 58.8028 24.8754 58.8028 24.5697C58.8028 22.9492 61.2315 20.5194 62.7733 20.0931C62.3289 21.0043 62.0968 22.1588 61.9926 23.0511Z" fill="var(--fill-0, #282828)" id="Vector_2"/>
</g>
</g>
</g>
<defs>
<clipPath id="clip0_0_21161">
<rect fill="white" height="37.0455" transform="translate(0 6)" width="83.2845"/>
</clipPath>
</defs>
</svg>